<svg xmlns="http://www.w3.org/2000/svg" width="30" height="30" viewBox="0 0 30 30">
  <g id="Icon_Groceries" data-name="Icon/Groceries" transform="translate(-442 -438)">
    <g id="Group_17868" data-name="Group 17868">
      <rect id="Rectangle_2422" data-name="Rectangle 2422" width="30" height="30" rx="15" transform="translate(442 438)" fill="#d2f5ed" opacity="0.49"/>
    </g>
    <g id="Layer_1" transform="translate(386.06 348.411)">
      <g id="Group_17871" data-name="Group 17871" transform="translate(61.94 97.589)">
        <g id="Group_17870" data-name="Group 17870" transform="translate(0 0)">
          <path id="Path_51090" data-name="Path 51090" d="M79.228,275.079a.2.2,0,0,1-.248.01l-1.818-1.269-1.818,1.269a.2.2,0,0,1-.235,0l-1.818-1.269-1.818,1.269a.2.2,0,0,1-.235,0l-1.818-1.269-1.818,1.269a.2.2,0,0,1-.235,0l-1.818-1.269-1.818,1.269a.2.2,0,0,1-.235,0L61.94,274l.563,4.829a1.278,1.278,0,0,0,1.269,1.13H78.651a1.278,1.278,0,0,0,1.269-1.13l.557-4.777ZM68.241,278.83l-.032,0a.2.2,0,0,1-.2-.173l-.283-1.8a.2.2,0,1,1,.4-.064l.283,1.8A.2.2,0,0,1,68.241,278.83Zm3.176-.171a.2.2,0,1,1-.41,0v-2.012a.2.2,0,0,1,.41,0Zm3.283-1.8-.283,1.8a.2.2,0,0,1-.2.173l-.032,0a.2.2,0,0,1-.171-.234l.283-1.8a.2.2,0,1,1,.4.064Z" transform="translate(-61.94 -264.958)" fill="#00d2a3" fill-rule="evenodd"/>
          <path id="Path_51091" data-name="Path 51091" d="M274.214,102.725a2.212,2.212,0,0,1,.664.33,2.073,2.073,0,0,1,.6.685,3.492,3.492,0,0,1-.05,3.452l.159.111,1.818-1.269a.2.2,0,0,1,.235,0l1.807,1.262.293-.242-1.213-2.871-.66.279a.889.889,0,0,1-.692-1.637l.661-.279-.585-1.385a3.485,3.485,0,0,1-.972.335.889.889,0,0,1-.346-1.708l.627-.265-.377-.893a1.7,1.7,0,1,0-3.139,1.326Z" transform="translate(-262.301 -97.589)" fill="#00d2a3" fill-rule="evenodd"/>
          <path id="Path_51092" data-name="Path 51092" d="M355.171,204.57a.48.48,0,0,0,.628.255l.66-.279-.373-.883-.661.279A.48.48,0,0,0,355.171,204.57Z" transform="translate(-340.39 -198.329)" fill="#00d2a3" fill-rule="evenodd"/>
          <path id="Path_51093" data-name="Path 51093" d="M94.727,140.748l-2.413-.094h-.021l-1.628,1.714,2.223.087Z" transform="translate(-89.221 -138.488)" fill="#00d2a3" fill-rule="evenodd"/>
          <path id="Path_51094" data-name="Path 51094" d="M202.419,206.912a3.036,3.036,0,0,0-.411,2.516h0l.222-.155a.2.2,0,0,1,.235,0l1.818,1.269,1.818-1.269a.2.2,0,0,1,.235,0l1.321.923h0a3.091,3.091,0,0,0,.028-3.019,1.661,1.661,0,0,0-.481-.549,1.769,1.769,0,0,0-.617-.29h-.01a1.976,1.976,0,0,0-1.639.484.206.206,0,0,1-.28.006,1.812,1.812,0,0,0-.952-.481,1.327,1.327,0,0,0-.7.1l0,0A1.387,1.387,0,0,0,202.419,206.912Z" transform="translate(-194.863 -200.83)" fill="#00d2a3" fill-rule="evenodd"/>
          <path id="Path_51095" data-name="Path 51095" d="M330.437,144.084a.482.482,0,0,0,.264.624c.254.14.757-.195.993-.267l-.373-.882C331.1,143.677,330.516,143.8,330.437,144.084Z" transform="translate(-316.901 -141.246)" fill="#00d2a3" fill-rule="evenodd"/>
          <path id="Path_51096" data-name="Path 51096" d="M83.965,186.945l.162-4.161-2.351-.092-.193,4.951.691.482Z" transform="translate(-80.595 -178.413)" fill="#00d2a3" fill-rule="evenodd"/>
          <path id="Path_51097" data-name="Path 51097" d="M137.152,150.732l1.767,1.234,1.24-.866h0a3.76,3.76,0,0,1-.136-1.471,3.252,3.252,0,0,1,.57-1.532,1.8,1.8,0,0,1,.636-.553l.034-.87-1.9-2.056-2.05,1.9Z" transform="translate(-133.37 -142.252)" fill="#00d2a3" fill-rule="evenodd"/>
          <path id="Path_51098" data-name="Path 51098" d="M0,0H1.068V2.612H0Z" transform="translate(3.2 1.762) rotate(-87.764)" fill="#00d2a3" fill-rule="evenodd"/>
          <path id="Path_51099" data-name="Path 51099" d="M242.054,173.466a2.618,2.618,0,0,1,.238.169c.049-.038.111-.082.182-.128a2.828,2.828,0,0,0-.738-1.657.2.2,0,1,0-.291.289A2.388,2.388,0,0,1,242.054,173.466Z" transform="translate(-232.362 -168.058)" fill="#00d2a3" fill-rule="evenodd"/>
        </g>
      </g>
    </g>
  </g>
</svg>
