<svg width="17" height="17" viewBox="0 0 17 17" fill="none" xmlns="http://www.w3.org/2000/svg">
<path d="M14.8485 6.86959C15.2532 6.86918 15.6413 6.70822 15.9275 6.42204C16.2136 6.13586 16.3746 5.74783 16.375 5.34311V3.905C16.3746 3.59033 16.2771 3.28345 16.0958 3.02624C15.9145 2.76902 15.6583 2.574 15.3621 2.46777L8.70112 0.0886232C8.36902 -0.0295411 8.00632 -0.0295411 7.67421 0.0886232L1.0132 2.46777C0.716936 2.57394 0.460653 2.76894 0.279323 3.02616C0.0979919 3.28338 0.000446897 3.59029 0 3.905V5.34311C0.000411453 5.74783 0.161369 6.13586 0.447551 6.42204C0.733733 6.70822 1.12176 6.86918 1.52648 6.86959H1.66525V13.2531H0.971398C0.713867 13.2534 0.466976 13.3558 0.284873 13.5379C0.102771 13.72 0.000323145 13.9669 0 14.2245V15.3346C0.000323145 15.5922 0.102771 15.8391 0.284873 16.0212C0.466976 16.2033 0.713867 16.3057 0.971398 16.306H14.8485C15.2532 16.3056 15.6413 16.1447 15.9275 15.8585C16.2136 15.5723 16.3746 15.1843 16.375 14.7796V11.449C16.3746 11.0443 16.2136 10.6563 15.9275 10.3701C15.6413 10.0839 15.2532 9.92297 14.8485 9.92256H14.7097V6.86959H14.8485ZM1.52648 6.03697C1.34251 6.0368 1.16612 5.96365 1.03603 5.83356C0.905943 5.70347 0.832789 5.52708 0.832627 5.34311V3.905C0.832961 3.76196 0.877372 3.6225 0.959814 3.50562C1.04225 3.38873 1.15872 3.30009 1.29335 3.25177L7.95436 0.872624C8.10595 0.822238 8.26977 0.822238 8.42136 0.872624L15.0824 3.25177C15.217 3.30009 15.3335 3.38873 15.4159 3.50562C15.4984 3.6225 15.5428 3.76196 15.5431 3.905V5.34311C15.5429 5.52721 15.4697 5.70371 15.3394 5.83382C15.2092 5.96393 15.0326 6.037 14.8485 6.03697H1.52648ZM11.6568 9.92256H9.71398V6.86959H11.6568V9.92256ZM6.66102 11.449V13.2531H4.71822V6.86959H6.66102V11.449ZM8.88136 9.92256H8.1875C7.94556 9.92421 7.70756 9.98409 7.49364 10.0971V6.86959H8.88136V9.92256ZM3.88559 6.86959V13.2531H2.49788V6.86959H3.88559ZM0.832627 15.3346V14.2245C0.832627 14.1877 0.847248 14.1524 0.873272 14.1263C0.899297 14.1003 0.934594 14.0857 0.971398 14.0857H6.66102V14.7796C6.66267 15.0215 6.72255 15.2595 6.83559 15.4734H0.971398C0.934594 15.4734 0.899297 15.4588 0.873272 15.4328C0.847248 15.4067 0.832627 15.3714 0.832627 15.3346ZM15.5424 11.449V14.7796C15.5422 14.9635 15.4691 15.1399 15.339 15.27C15.2089 15.4001 15.0325 15.4732 14.8485 15.4734H8.1875C8.00353 15.4732 7.82714 15.4001 7.69705 15.27C7.56696 15.1399 7.49381 14.9635 7.49364 14.7796V11.449C7.49381 11.2651 7.56696 11.0887 7.69705 10.9586C7.82714 10.8285 8.00353 10.7553 8.1875 10.7552H14.8485C15.0325 10.7553 15.2089 10.8285 15.339 10.9586C15.4691 11.0887 15.5422 11.2651 15.5424 11.449ZM12.4894 9.92256V6.86959H13.8771V9.92256H12.4894Z" fill="#E9837B"/>
<path d="M8.18749 2.15149C7.88558 2.15149 7.59045 2.24102 7.33943 2.40875C7.0884 2.57648 6.89274 2.81488 6.77721 3.09381C6.66167 3.37274 6.63144 3.67967 6.69034 3.97577C6.74924 4.27188 6.89463 4.54388 7.10811 4.75736C7.32159 4.97084 7.59358 5.11622 7.88969 5.17512C8.1858 5.23402 8.49273 5.20379 8.77165 5.08826C9.05058 4.97272 9.28899 4.77707 9.45672 4.52604C9.62445 4.27501 9.71398 3.97988 9.71398 3.67797C9.71357 3.27325 9.55261 2.88522 9.26643 2.59904C8.98024 2.31286 8.59222 2.1519 8.18749 2.15149ZM8.18749 4.37183C8.05026 4.37183 7.91611 4.33113 7.80201 4.25489C7.6879 4.17865 7.59897 4.07028 7.54645 3.9435C7.49394 3.81671 7.4802 3.6772 7.50697 3.54261C7.53374 3.40801 7.59983 3.28438 7.69686 3.18734C7.7939 3.0903 7.91754 3.02422 8.05213 2.99745C8.18672 2.97068 8.32624 2.98442 8.45302 3.03693C8.57981 3.08945 8.68817 3.17838 8.76441 3.29249C8.84066 3.40659 8.88135 3.54074 8.88135 3.67797C8.88119 3.86194 8.80803 4.03834 8.67795 4.16842C8.54786 4.29851 8.37147 4.37167 8.18749 4.37183Z" fill="#E9837B"/>
<path d="M11.518 14.6409C11.8199 14.6409 12.1151 14.5514 12.3661 14.3836C12.6171 14.2159 12.8128 13.9775 12.9283 13.6986C13.0438 13.4197 13.0741 13.1127 13.0152 12.8166C12.9563 12.5205 12.8109 12.2485 12.5974 12.035C12.3839 11.8216 12.1119 11.6762 11.8158 11.6173C11.5197 11.5584 11.2128 11.5886 10.9339 11.7041C10.6549 11.8197 10.4165 12.0153 10.2488 12.2664C10.0811 12.5174 9.99153 12.8125 9.99153 13.1144C9.99194 13.5191 10.1529 13.9072 10.4391 14.1934C10.7253 14.4795 11.1133 14.6405 11.518 14.6409ZM11.518 12.4206C11.6552 12.4206 11.7894 12.4613 11.9035 12.5375C12.0176 12.6137 12.1065 12.7221 12.1591 12.8489C12.2116 12.9757 12.2253 13.1152 12.1985 13.2498C12.1718 13.3844 12.1057 13.508 12.0086 13.6051C11.9116 13.7021 11.788 13.7682 11.6534 13.7949C11.5188 13.8217 11.3793 13.808 11.2525 13.7555C11.1257 13.7029 11.0173 13.614 10.9411 13.4999C10.8649 13.3858 10.8242 13.2517 10.8242 13.1144C10.8243 12.9304 10.8975 12.7541 11.0276 12.624C11.1577 12.4939 11.334 12.4207 11.518 12.4206Z" fill="#E9837B"/>
</svg>
