<svg width="20" height="20" viewBox="0 0 20 20" fill="none" xmlns="http://www.w3.org/2000/svg">
<path fill-rule="evenodd" clip-rule="evenodd" d="M2.08337 1.4585C2.08337 1.11332 1.80355 0.833496 1.45837 0.833496C1.1132 0.833496 0.833374 1.11332 0.833374 1.4585V14.7918C0.833374 16.978 2.60558 18.7502 4.79171 18.7502H18.125C18.4702 18.7502 18.75 18.4703 18.75 18.1252C18.75 17.78 18.4702 17.5002 18.125 17.5002H4.79171C3.29594 17.5002 2.08337 16.2876 2.08337 14.7918V1.4585ZM13.75 7.29183C13.75 6.94665 14.0299 6.66683 14.375 6.66683H15.625C16.4305 6.66683 17.0834 7.31975 17.0834 8.12516V9.37516C17.0834 9.72034 16.8036 10.0002 16.4584 10.0002C16.1132 10.0002 15.8334 9.72034 15.8334 9.37516V8.80071L13.9122 10.7219C13.0172 11.6169 11.5662 11.6169 10.6713 10.7219L9.69494 9.74562C9.28815 9.33882 8.6286 9.33882 8.22181 9.74561L6.06698 11.9004C5.8229 12.1445 5.42718 12.1445 5.1831 11.9004C4.93902 11.6564 4.93902 11.2606 5.1831 11.0166L7.33792 8.86173C8.23287 7.96678 9.68388 7.96678 10.5788 8.86173L11.5551 9.83804C11.9619 10.2448 12.6215 10.2448 13.0283 9.83804L14.9495 7.91683H14.375C14.0299 7.91683 13.75 7.63701 13.75 7.29183Z" fill="#868687"/>
<path d="M15.8334 8.80071H15.9584C15.9584 8.75015 15.9279 8.70457 15.8812 8.68523C15.8345 8.66588 15.7807 8.67657 15.745 8.71232L15.8334 8.80071ZM13.9122 10.7219L14.0005 10.8103L13.9122 10.7219ZM10.6713 10.7219L10.7596 10.6335L10.6713 10.7219ZM9.69494 9.74562L9.60655 9.834L9.69494 9.74562ZM8.22181 9.74561L8.13342 9.65723L8.22181 9.74561ZM6.06698 11.9004L6.15537 11.9888L6.06698 11.9004ZM5.1831 11.0166L5.09471 10.9282L5.1831 11.0166ZM7.33792 8.86173L7.42631 8.95012L7.33792 8.86173ZM10.5788 8.86173L10.4904 8.95012L10.5788 8.86173ZM11.5551 9.83804L11.6435 9.74965L11.5551 9.83804ZM13.0283 9.83804L12.9399 9.74965L13.0283 9.83804ZM14.9495 7.91683L15.0379 8.00522C15.0736 7.96947 15.0843 7.9157 15.065 7.86899C15.0456 7.82228 15 7.79183 14.9495 7.79183V7.91683ZM1.45837 0.958496C1.73452 0.958496 1.95837 1.18235 1.95837 1.4585H2.20837C2.20837 1.04428 1.87259 0.708496 1.45837 0.708496V0.958496ZM0.958374 1.4585C0.958374 1.18235 1.18223 0.958496 1.45837 0.958496V0.708496C1.04416 0.708496 0.708374 1.04428 0.708374 1.4585H0.958374ZM0.958374 14.7918V1.4585H0.708374V14.7918H0.958374ZM4.79171 18.6252C2.67462 18.6252 0.958374 16.9089 0.958374 14.7918H0.708374C0.708374 17.047 2.53654 18.8752 4.79171 18.8752V18.6252ZM18.125 18.6252H4.79171V18.8752H18.125V18.6252ZM18.625 18.1252C18.625 18.4013 18.4012 18.6252 18.125 18.6252V18.8752C18.5393 18.8752 18.875 18.5394 18.875 18.1252H18.625ZM18.125 17.6252C18.4012 17.6252 18.625 17.849 18.625 18.1252H18.875C18.875 17.711 18.5393 17.3752 18.125 17.3752V17.6252ZM4.79171 17.6252H18.125V17.3752H4.79171V17.6252ZM1.95837 14.7918C1.95837 16.3566 3.2269 17.6252 4.79171 17.6252V17.3752C3.36497 17.3752 2.20837 16.2186 2.20837 14.7918H1.95837ZM1.95837 1.4585V14.7918H2.20837V1.4585H1.95837ZM14.375 6.54183C13.9608 6.54183 13.625 6.87762 13.625 7.29183H13.875C13.875 7.01569 14.0989 6.79183 14.375 6.79183V6.54183ZM15.625 6.54183H14.375V6.79183H15.625V6.54183ZM17.2084 8.12516C17.2084 7.25071 16.4995 6.54183 15.625 6.54183V6.79183C16.3614 6.79183 16.9584 7.38878 16.9584 8.12516H17.2084ZM17.2084 9.37516V8.12516H16.9584V9.37516H17.2084ZM16.4584 10.1252C16.8726 10.1252 17.2084 9.78938 17.2084 9.37516H16.9584C16.9584 9.65131 16.7345 9.87516 16.4584 9.87516V10.1252ZM15.7084 9.37516C15.7084 9.78938 16.0442 10.1252 16.4584 10.1252V9.87516C16.1822 9.87516 15.9584 9.65131 15.9584 9.37516H15.7084ZM15.7084 8.80071V9.37516H15.9584V8.80071H15.7084ZM14.0005 10.8103L15.9218 8.8891L15.745 8.71232L13.8238 10.6335L14.0005 10.8103ZM10.5829 10.8103C11.5266 11.7541 13.0568 11.7541 14.0005 10.8103L13.8238 10.6335C12.9776 11.4797 11.6058 11.4797 10.7596 10.6335L10.5829 10.8103ZM9.60655 9.834L10.5829 10.8103L10.7596 10.6335L9.78333 9.65723L9.60655 9.834ZM8.31019 9.834C8.66817 9.47602 9.24857 9.47602 9.60655 9.834L9.78333 9.65723C9.32772 9.20162 8.58903 9.20161 8.13342 9.65723L8.31019 9.834ZM6.15537 11.9888L8.31019 9.834L8.13342 9.65723L5.97859 11.812L6.15537 11.9888ZM5.09471 11.9888C5.3876 12.2817 5.86248 12.2817 6.15537 11.9888L5.97859 11.812C5.78333 12.0073 5.46675 12.0073 5.27149 11.812L5.09471 11.9888ZM5.09471 10.9282C4.80182 11.2211 4.80182 11.6959 5.09471 11.9888L5.27149 11.812C5.07622 11.6168 5.07622 11.3002 5.27149 11.1049L5.09471 10.9282ZM7.24953 8.77334L5.09471 10.9282L5.27149 11.1049L7.42631 8.95012L7.24953 8.77334ZM10.6672 8.77334C9.72345 7.82958 8.1933 7.82958 7.24953 8.77334L7.42631 8.95012C8.27245 8.10398 9.6443 8.10398 10.4904 8.95012L10.6672 8.77334ZM11.6435 9.74965L10.6672 8.77334L10.4904 8.95012L11.4668 9.92643L11.6435 9.74965ZM12.9399 9.74965C12.5819 10.1076 12.0015 10.1076 11.6435 9.74965L11.4668 9.92643C11.9224 10.382 12.6611 10.382 13.1167 9.92643L12.9399 9.74965ZM14.8611 7.82844L12.9399 9.74965L13.1167 9.92643L15.0379 8.00522L14.8611 7.82844ZM14.375 8.04183H14.9495V7.79183H14.375V8.04183ZM13.625 7.29183C13.625 7.70604 13.9608 8.04183 14.375 8.04183V7.79183C14.0989 7.79183 13.875 7.56797 13.875 7.29183H13.625Z" fill="#868687"/>
</svg>
